<?xml version="1.0" standalone="no"?>
<!DOCTYPE svg PUBLIC "-//W3C//DTD SVG 20010904//EN"
 "http://www.w3.org/TR/2001/REC-SVG-20010904/DTD/svg10.dtd">
<svg version="1.0" xmlns="http://www.w3.org/2000/svg"
 width="696.000000pt" height="696.000000pt" viewBox="0 0 696.000000 696.000000"
 preserveAspectRatio="xMidYMid meet">
<metadata>
Created by potrace 1.14, written by Peter Selinger 2001-2017
</metadata>
<g transform="translate(0.000000,696.000000) scale(0.100000,-0.100000)"
fill="#000000" stroke="none">
<path d="M3445 5160 c2 -3 -31 -6 -72 -8 -42 -1 -81 -6 -86 -9 -6 -4 -25 -8
-41 -9 -17 -2 -42 -6 -56 -9 -14 -4 -33 -7 -42 -7 -10 1 -18 -3 -18 -8 0 -4
-9 -6 -20 -3 -11 3 -20 0 -20 -6 0 -7 -10 -10 -25 -7 -14 3 -25 1 -25 -4 0 -5
-6 -7 -13 -5 -7 3 -29 -3 -49 -14 -21 -10 -35 -14 -31 -7 3 6 -3 3 -15 -7 -11
-11 -26 -16 -31 -12 -6 3 -11 1 -11 -6 0 -7 -3 -9 -7 -6 -3 4 -15 0 -25 -10
-10 -9 -18 -13 -18 -8 0 4 -7 2 -15 -5 -8 -6 -20 -8 -26 -4 -8 4 -9 3 -5 -4 4
-7 2 -12 -4 -12 -7 0 -25 -9 -41 -21 -16 -11 -29 -17 -29 -14 0 4 -7 0 -15 -7
-36 -33 -47 -39 -65 -41 -10 -1 -17 -4 -14 -8 5 -9 -41 -39 -61 -39 -8 0 -14
-6 -12 -12 1 -7 -4 -12 -10 -11 -7 2 -13 -2 -13 -8 0 -5 -4 -8 -9 -5 -5 3 -12
-1 -15 -10 -3 -8 -10 -13 -15 -9 -6 3 -15 -4 -21 -15 -6 -11 -15 -20 -21 -20
-14 0 -75 -62 -71 -73 1 -4 -1 -6 -5 -4 -5 3 -29 -17 -53 -45 -82 -91 -98
-107 -104 -102 -3 2 -4 1 -1 -2 8 -12 -16 -45 -27 -38 -7 4 -8 3 -4 -5 4 -6 0
-14 -8 -17 -9 -3 -14 -9 -11 -14 2 -4 -6 -17 -19 -29 -14 -13 -27 -34 -30 -47
-4 -13 -11 -24 -17 -24 -6 0 -7 -4 -4 -10 3 -5 2 -10 -3 -10 -5 0 -17 -18 -28
-40 -10 -22 -23 -40 -27 -40 -5 0 -6 -4 -2 -10 3 -5 -5 -31 -19 -57 -13 -26
-30 -63 -36 -80 -7 -18 -16 -33 -21 -33 -4 0 -6 -9 -4 -20 2 -11 0 -20 -6 -20
-5 0 -8 -3 -8 -7 1 -5 0 -10 -1 -13 -3 -9 -10 -44 -12 -62 -1 -10 -7 -18 -12
-18 -5 0 -7 -3 -4 -6 3 -3 2 -21 -4 -41 -22 -82 -31 -143 -32 -220 -1 -35 -4
-63 -8 -63 -4 0 -5 -48 -3 -107 3 -60 4 -134 4 -165 0 -32 4 -58 8 -58 4 0 9
-15 10 -32 2 -33 10 -83 13 -83 1 0 4 -11 14 -60 1 -5 4 -14 7 -20 8 -14 23
-68 21 -77 -1 -5 2 -8 8 -8 5 0 7 -7 4 -15 -4 -8 0 -22 7 -31 7 -9 14 -25 16
-37 2 -11 8 -26 13 -32 5 -7 7 -15 3 -18 -3 -4 -1 -7 6 -7 7 0 9 -4 6 -10 -3
-5 -1 -10 5 -10 6 0 8 -4 5 -10 -3 -5 -2 -10 3 -10 4 0 23 -31 41 -70 18 -38
37 -70 43 -70 5 0 6 -5 3 -10 -3 -6 1 -13 9 -16 9 -3 16 -14 16 -25 0 -10 8
-23 18 -28 9 -6 13 -11 9 -11 -4 0 -2 -6 5 -14 7 -8 17 -11 22 -8 5 3 6 0 2
-6 -3 -6 4 -22 16 -36 13 -14 34 -40 48 -57 47 -57 108 -119 119 -119 5 0 14
-6 18 -13 14 -21 90 -77 97 -70 3 3 6 -1 6 -10 0 -10 7 -17 15 -17 8 0 15 -4
15 -10 0 -5 5 -10 10 -10 6 0 23 -11 38 -25 15 -14 33 -23 40 -20 6 2 12 -3
12 -11 0 -8 4 -13 9 -10 4 3 16 -3 26 -14 10 -11 24 -20 31 -20 7 0 14 -4 16
-9 2 -5 12 -11 23 -13 11 -1 28 -12 38 -23 10 -11 15 -14 12 -6 -8 14 44 -15
56 -32 3 -5 9 -8 13 -8 15 3 56 -12 56 -20 0 -5 7 -6 15 -3 8 4 15 1 15 -7 0
-7 3 -9 6 -6 4 3 14 2 24 -3 9 -5 28 -11 41 -14 13 -3 41 -9 61 -15 20 -5 39
-6 42 -3 4 3 6 1 6 -4 0 -9 34 -15 98 -18 12 -1 22 -4 22 -8 0 -4 18 -6 40 -5
22 2 40 0 40 -4 0 -4 37 -7 83 -7 45 0 91 -1 102 -1 11 -1 31 0 45 2 14 2 31
-1 38 -6 6 -5 12 -5 12 -1 0 5 37 10 83 10 45 0 98 4 117 8 19 4 50 9 68 12
17 4 32 10 32 15 0 5 6 6 14 3 8 -3 28 2 45 10 17 9 32 16 33 15 2 0 17 5 33
11 17 7 40 14 53 16 28 6 136 56 140 66 2 4 10 4 18 1 8 -3 14 -1 14 3 0 5 14
16 32 23 18 8 43 26 57 40 13 14 21 19 16 11 -5 -8 3 -5 17 8 13 12 28 19 31
15 4 -3 7 -1 7 6 0 7 4 10 8 7 5 -3 15 3 24 12 9 9 28 26 42 37 15 11 38 30
51 42 13 13 27 23 30 23 8 0 160 152 160 160 0 10 63 69 68 64 3 -3 8 4 12 15
3 12 11 21 16 21 6 0 7 5 4 10 -3 6 -2 10 3 10 11 0 62 96 62 117 0 8 5 11 10
8 9 -6 14 8 11 28 0 4 5 7 12 7 7 0 14 12 15 27 1 14 9 34 18 44 8 9 16 28 18
42 1 14 10 32 19 42 10 9 15 21 12 26 -4 5 -2 9 4 9 5 0 8 8 7 17 -2 10 3 24
11 31 11 12 18 41 14 65 0 4 3 7 9 7 5 0 10 11 10 23 0 13 3 27 7 31 4 3 8 12
9 19 1 7 5 28 9 47 4 19 8 40 9 45 1 6 4 15 7 20 6 12 12 63 13 118 1 20 4 37
7 37 4 0 6 23 5 50 0 28 3 50 7 50 5 0 5 5 2 11 -10 15 -13 69 -4 69 4 0 4 13
-1 28 -4 16 -4 36 2 45 5 10 5 17 1 17 -4 0 -9 24 -11 53 -2 46 -7 82 -12 97
-1 3 -1 15 0 28 1 12 -2 22 -7 22 -4 0 -8 10 -9 23 -1 19 -9 63 -14 77 -2 3
-2 9 -1 14 2 7 -7 33 -37 116 -3 8 -6 20 -7 25 -2 6 -12 33 -22 60 -25 65 -34
89 -34 93 1 1 -8 11 -19 22 -11 11 -20 29 -20 40 0 11 -4 20 -8 20 -5 0 -15
12 -22 28 -19 37 -73 116 -82 120 -5 2 -8 10 -8 17 0 7 -7 16 -16 19 -8 3 -13
10 -10 14 3 5 -5 14 -17 21 -13 7 -32 28 -42 47 -10 19 -20 32 -23 30 -6 -7
-52 41 -52 55 0 7 -3 10 -6 6 -3 -3 -20 9 -38 26 -40 40 -69 63 -78 62 -4 0
-15 10 -23 23 -9 12 -22 22 -28 22 -7 0 -19 9 -27 20 -8 11 -19 20 -26 20 -6
0 -19 9 -29 20 -10 11 -26 20 -36 20 -10 0 -21 5 -24 10 -4 6 -11 8 -16 5 -5
-4 -9 -2 -9 4 0 12 -80 55 -80 44 0 -5 -4 -2 -9 5 -4 7 -16 14 -25 16 -10 1
-22 9 -27 17 -5 8 -9 11 -9 7 0 -3 -27 4 -59 17 -33 13 -62 20 -65 17 -3 -3
-6 1 -6 8 0 7 -3 11 -6 8 -3 -4 -20 -2 -37 3 -49 15 -70 20 -92 22 -11 1 -22
5 -25 8 -3 4 -18 8 -35 10 -16 2 -36 7 -42 12 -9 6 -13 5 -13 -2 0 -9 -5 -9
-20 -1 -11 6 -37 11 -58 10 -33 0 -87 6 -87 10 0 1 -10 3 -22 4 -13 2 -23 -1
-23 -5 0 -3 -15 -5 -32 -3 -18 1 -33 3 -33 4 0 1 -14 2 -32 3 -17 1 -30 0 -28
-3z"/>
</g>
</svg>
